<?xml version="1.0" standalone="no"?>
<!DOCTYPE svg PUBLIC "-//W3C//DTD SVG 20010904//EN"
 "http://www.w3.org/TR/2001/REC-SVG-20010904/DTD/svg10.dtd">
<svg version="1.0" xmlns="http://www.w3.org/2000/svg"
 width="1800.000000pt" height="1800.000000pt" viewBox="0 0 1800.000000 1800.000000"
 preserveAspectRatio="xMidYMid meet">

<g transform="translate(0.000000,1800.000000) scale(0.100000,-0.100000)"
fill="#0081E3" stroke="none">
<path d="M8785 16710 c-4 -6 -56 -10 -124 -10 -65 0 -164 -4 -222 -10 -57 -5
-131 -11 -164 -14 -78 -6 -305 -35 -327 -42 -10 -3 -38 -7 -63 -10 -58 -5
-290 -48 -490 -91 -84 -18 -400 -99 -470 -120 -342 -103 -730 -245 -950 -348
-342 -159 -771 -387 -933 -496 -24 -16 -45 -29 -48 -29 -18 0 -492 -337 -651
-463 -248 -196 -385 -318 -608 -542 -263 -263 -330 -334 -461 -490 -322 -383
-512 -650 -761 -1065 -136 -227 -354 -651 -438 -855 -21 -49 -55 -133 -77
-185 -73 -176 -188 -506 -254 -729 -46 -152 -132 -498 -148 -591 -2 -14 -10
-47 -16 -75 -6 -27 -13 -59 -15 -70 -2 -11 -8 -53 -14 -93 -6 -41 -15 -93 -20
-115 -6 -23 -15 -85 -21 -137 -7 -52 -16 -120 -21 -150 -5 -30 -11 -86 -13
-125 -3 -38 -10 -117 -16 -175 -39 -405 -39 -892 1 -1315 5 -60 12 -137 14
-170 3 -33 9 -89 14 -125 6 -36 15 -103 21 -150 25 -190 29 -214 71 -415 7
-33 13 -69 15 -80 1 -11 12 -60 24 -110 11 -49 26 -112 32 -140 10 -45 27
-109 73 -270 66 -233 166 -531 245 -730 87 -220 224 -522 310 -684 33 -62 60
-115 60 -117 0 -3 23 -46 51 -97 551 -991 1284 -1825 2174 -2475 275 -201 508
-351 775 -500 118 -66 563 -292 574 -292 2 0 47 -20 100 -45 53 -25 99 -45
102 -45 3 0 20 -6 37 -14 34 -16 186 -75 259 -101 250 -90 396 -139 493 -165
44 -12 118 -33 165 -46 175 -49 450 -111 590 -134 30 -5 107 -18 170 -28 502
-87 1119 -120 1600 -88 212 14 411 34 670 66 143 18 487 84 670 130 237 59
557 150 680 195 93 33 341 125 365 134 68 28 224 97 440 194 145 65 436 220
620 330 90 54 139 85 325 206 52 33 356 250 390 277 8 7 74 59 146 116 73 57
176 142 230 189 150 132 452 422 550 529 48 52 124 136 169 185 141 153 265
309 484 605 121 164 301 444 449 700 139 239 366 717 470 990 11 30 36 96 55
145 103 268 258 806 301 1040 2 11 14 67 26 125 12 58 24 118 26 133 2 16 6
36 8 46 8 23 54 338 61 408 3 32 9 83 14 113 5 30 10 78 10 105 0 28 5 84 11
125 5 41 10 126 10 188 0 68 4 112 10 112 6 0 10 103 10 289 0 183 -4 292 -10
296 -6 3 -10 48 -10 98 0 100 -14 289 -32 432 -6 50 -13 108 -14 130 -2 22 -7
67 -13 100 -6 33 -15 98 -21 145 -6 47 -18 117 -26 155 -113 550 -143 674
-251 1015 -42 134 -132 388 -153 435 -5 11 -25 61 -45 110 -19 50 -50 126 -67
170 -42 104 -315 653 -372 747 -380 629 -557 876 -957 1328 -172 195 -276 301
-459 471 -241 224 -293 269 -437 385 -44 35 -314 239 -358 270 -398 280 -854
547 -1180 692 -55 24 -145 64 -200 89 -55 24 -134 58 -175 74 -41 16 -84 34
-95 39 -241 108 -978 320 -1320 380 -27 5 -90 16 -140 25 -49 9 -101 18 -115
20 -256 34 -409 53 -450 54 -19 1 -71 6 -115 11 -44 6 -134 10 -202 10 -70 0
-124 4 -128 10 -4 6 -98 10 -250 10 -152 0 -246 -4 -250 -10z m785 -850 c69
-6 163 -15 210 -21 47 -6 103 -13 124 -15 172 -14 723 -129 976 -204 577 -170
1091 -392 1560 -675 80 -48 163 -97 185 -110 69 -40 286 -188 389 -266 54 -41
110 -83 125 -94 15 -11 60 -47 100 -80 41 -33 88 -71 105 -85 186 -148 557
-509 750 -730 282 -324 578 -736 766 -1065 9 -16 41 -70 69 -120 116 -200 313
-621 424 -905 84 -216 228 -676 251 -803 2 -15 7 -35 10 -45 3 -9 7 -28 10
-42 2 -14 13 -63 24 -110 11 -47 23 -103 26 -125 4 -22 11 -56 16 -75 11 -40
51 -291 52 -323 0 -12 6 -60 14 -107 15 -102 30 -268 45 -533 11 -177 9 -353
-6 -747 -4 -86 -24 -299 -36 -379 -6 -34 -12 -86 -15 -115 -2 -28 -8 -71 -13
-96 -6 -25 -15 -83 -21 -130 -7 -47 -16 -98 -21 -115 -5 -16 -11 -48 -15 -70
-3 -22 -15 -78 -26 -125 -11 -47 -21 -94 -24 -105 -47 -234 -167 -629 -279
-915 -104 -268 -351 -790 -437 -925 -14 -22 -58 -96 -99 -165 -118 -200 -261
-409 -449 -656 -160 -211 -355 -431 -579 -654 -226 -225 -374 -354 -671 -588
-210 -164 -561 -393 -865 -562 -109 -61 -515 -260 -530 -260 -2 0 -28 -11 -57
-24 -96 -44 -397 -157 -523 -197 -16 -5 -79 -26 -140 -45 -202 -65 -469 -130
-775 -189 -33 -6 -288 -45 -337 -50 -21 -3 -69 -9 -108 -15 -184 -25 -395 -34
-765 -34 -405 1 -477 5 -855 49 -65 8 -226 33 -280 44 -27 6 -102 20 -165 32
-225 42 -635 153 -855 232 -192 69 -298 109 -375 142 -47 20 -107 45 -135 56
-107 44 -444 212 -598 300 -345 196 -601 367 -870 581 -268 213 -378 310 -611
542 -193 193 -270 278 -488 541 -62 75 -200 257 -258 341 -117 170 -320 487
-320 500 0 3 -11 21 -24 42 -68 105 -318 602 -371 737 -15 39 -35 88 -45 110
-10 22 -34 85 -54 140 -21 55 -44 118 -53 140 -51 129 -197 626 -223 760 -18
93 -42 214 -55 275 -22 105 -54 293 -59 355 -3 22 -9 69 -14 105 -6 36 -11 89
-11 119 -1 29 -3 57 -6 61 -8 13 -35 513 -35 650 0 137 27 637 35 650 3 4 5
32 6 61 0 30 7 95 14 144 8 50 19 128 25 175 12 89 23 151 45 260 7 36 19 92
25 125 6 33 16 78 21 100 5 22 11 51 13 65 5 27 45 181 71 270 9 30 25 89 36
130 35 128 130 409 169 495 5 11 18 45 29 75 57 155 111 277 233 520 103 207
165 321 204 382 13 21 24 40 24 42 0 3 22 40 48 83 27 43 64 103 83 133 32 53
124 189 198 295 53 77 196 268 217 290 11 11 39 45 64 76 149 186 268 318 456
505 231 231 343 330 611 542 234 186 494 364 733 502 36 20 115 66 175 100
118 68 474 244 565 280 30 12 69 28 85 35 129 58 239 99 480 181 345 118 717
209 1102 269 51 8 119 17 150 20 32 3 65 7 73 10 28 8 265 27 435 35 206 10
723 4 895 -10z"/>
<path d="M8940 15223 c-54 -7 -170 -43 -220 -68 -120 -61 -234 -175 -298 -300
-40 -77 -58 -136 -73 -245 -22 -156 19 -325 112 -465 130 -193 338 -305 570
-305 231 0 438 111 568 305 61 92 88 163 109 284 13 80 14 106 3 184 -23 158
-59 245 -152 362 -118 151 -296 240 -495 249 -49 2 -105 2 -124 -1z"/>
<path d="M9533 13738 c-43 -28 -107 -63 -143 -78 -62 -27 -83 -33 -192 -61
-26 -6 -102 -11 -168 -11 -66 0 -142 5 -168 11 -105 27 -130 34 -187 58 -33
13 -95 47 -137 74 -42 27 -82 49 -88 49 -43 0 -276 -89 -415 -158 -229 -114
-518 -338 -662 -512 -31 -39 -60 -70 -64 -70 -4 0 -9 10 -11 23 -3 20 -9 22
-68 25 -86 4 -297 -16 -419 -40 -30 -5 -64 -11 -75 -13 -12 -2 -46 -10 -76
-18 -30 -9 -82 -23 -114 -32 -92 -25 -269 -100 -383 -161 -104 -56 -112 -64
-104 -116 0 -4 -13 -53 -30 -110 -96 -327 -369 -581 -702 -654 l-75 -17 -46
-97 c-91 -194 -141 -339 -177 -515 -41 -205 -44 -240 -44 -497 0 -141 -1 -255
-3 -253 -3 3 -10 47 -11 73 -2 35 -47 4 -140 -95 -116 -125 -153 -175 -250
-333 -98 -163 -158 -294 -235 -518 l-24 -73 54 -90 c84 -137 122 -247 144
-417 15 -108 3 -222 -37 -361 -28 -95 -54 -151 -118 -251 l-44 -68 45 -134
c47 -139 126 -315 196 -433 99 -167 338 -454 457 -549 34 -27 34 -27 12 -42
-19 -14 -21 -24 -21 -132 0 -64 4 -144 10 -177 5 -33 10 -76 11 -95 1 -19 8
-64 16 -100 7 -36 18 -87 24 -115 20 -98 78 -279 116 -365 52 -117 116 -243
133 -260 13 -13 34 -20 59 -20 22 0 79 -13 128 -29 217 -72 395 -213 511 -405
36 -59 98 -196 106 -236 33 -149 28 -139 76 -166 106 -62 429 -183 523 -198
22 -3 58 -10 80 -15 123 -28 218 -36 419 -36 120 0 218 -2 218 -4 0 -2 -8 -10
-17 -17 -16 -12 -10 -21 67 -96 189 -183 330 -284 558 -398 115 -58 355 -150
389 -150 10 0 38 14 63 31 85 57 215 116 310 140 132 32 316 32 445 -1 90 -23
221 -83 305 -139 25 -17 52 -31 60 -31 8 0 61 16 117 35 337 114 605 284 871
551 78 79 144 144 146 144 2 0 6 -9 9 -20 5 -18 13 -20 89 -20 45 0 126 5 178
10 52 6 117 13 144 16 48 4 159 30 316 73 103 27 285 102 402 164 101 53 102
54 112 132 21 157 119 346 250 483 124 130 267 213 451 261 l100 27 32 59 c42
79 131 302 156 390 11 39 28 113 38 165 11 52 24 120 30 150 26 129 22 523 -8
700 -3 20 -2 31 3 27 5 -5 9 -12 10 -15 0 -4 4 -30 8 -58 4 -28 9 -70 11 -93
6 -79 18 -75 126 39 117 123 222 264 308 412 33 59 61 109 61 112 0 2 15 37
34 78 30 65 82 206 115 311 12 37 11 40 -41 125 -30 48 -61 105 -70 127 -30
75 -48 125 -43 125 2 0 -3 19 -12 43 -12 32 -16 82 -17 202 -1 147 2 168 27
255 32 111 63 179 124 273 40 62 43 72 34 100 -79 245 -158 423 -258 580 -91
142 -187 260 -325 400 -118 119 -140 147 -124 151 18 5 19 12 13 183 -5 141
-13 211 -38 338 -48 247 -129 481 -218 636 -23 39 -41 74 -41 78 0 4 -46 17
-102 29 -106 23 -247 83 -331 141 -77 52 -195 171 -242 241 -50 76 -121 220
-129 262 -2 15 -7 31 -9 36 -3 4 -8 28 -12 52 -9 69 -12 73 -63 98 -190 94
-420 177 -572 206 -175 34 -235 40 -433 40 -206 1 -208 1 -203 22 4 16 -13 38
-77 100 -262 252 -510 402 -859 519 l-96 33 -79 -50z m-323 -710 c38 -2 202
-42 265 -64 39 -14 115 -46 169 -72 l97 -47 -138 -91 c-232 -154 -436 -350
-600 -579 -13 -18 -15 -18 -23 -3 -41 71 -271 314 -385 407 -120 97 -237 177
-297 204 -16 6 -28 15 -28 19 0 21 172 111 303 157 210 74 323 86 637 69z
m2035 -800 c198 -57 434 -205 592 -370 83 -87 220 -300 272 -423 37 -87 84
-235 76 -243 -1 -1 -29 5 -62 13 -79 20 -272 51 -348 56 -146 9 -380 1 -512
-17 -40 -6 -43 -5 -43 17 1 13 6 53 13 89 16 82 15 493 -1 570 -6 30 -19 93
-28 140 -9 47 -20 103 -24 124 -8 42 -31 66 -62 66 -10 0 -18 4 -18 9 0 10 20
5 145 -31z m-4368 -75 c-20 -84 -33 -155 -47 -253 -14 -97 -14 -454 -1 -545
13 -87 14 -145 2 -126 -12 18 -206 40 -366 40 -115 1 -293 -15 -395 -34 -88
-17 -206 -48 -218 -57 -21 -18 -23 -3 -6 48 18 51 18 53 55 149 86 226 259
450 469 609 94 72 280 166 396 201 49 15 96 30 104 35 8 4 17 6 19 4 2 -2 -4
-34 -12 -71z m3457 30 c-3 -18 7 -64 26 -123 54 -161 71 -279 66 -475 -5 -246
-41 -388 -153 -618 -30 -60 -51 -112 -48 -118 10 -15 35 -10 66 12 57 40 50
13 -7 -31 -116 -88 -183 -148 -412 -374 l-232 -230 -110 -2 -110 -2 -1 157
c-2 704 5 782 98 1016 134 339 363 590 689 756 64 33 120 59 125 59 5 0 6 -12
3 -27z m-2580 -20 c-5 -26 -1 -30 52 -53 166 -71 392 -266 537 -462 68 -92
207 -399 207 -458 0 -14 6 -20 23 -20 22 0 25 7 41 88 10 48 19 94 21 102 2 8
4 18 4 23 1 4 6 7 12 7 6 0 8 -9 3 -22 -4 -13 -8 -32 -10 -43 -1 -11 -7 -47
-12 -80 -30 -169 -35 -296 -30 -741 3 -250 3 -454 -1 -454 -7 0 -514 519 -612
626 -163 180 -279 412 -336 672 -21 97 -24 413 -4 517 16 87 91 325 102 325 5
0 6 -12 3 -27z m-1149 -1728 c164 -13 360 -73 527 -163 99 -54 121 -51 88 11
-42 79 -17 62 57 -38 81 -109 141 -174 475 -514 l289 -294 134 5 c121 5 153 1
126 -16 -17 -11 -1255 -8 -1306 3 -27 6 -61 13 -75 15 -65 11 -220 61 -287 91
-84 38 -103 49 -179 98 -128 82 -183 127 -270 223 -111 121 -183 224 -243 347
-28 57 -51 108 -51 113 0 6 17 15 38 21 20 6 64 21 97 32 133 47 358 84 460
75 22 -2 76 -6 120 -9z m5175 -7 c62 -1 345 -83 338 -97 -103 -211 -210 -364
-335 -481 -182 -170 -303 -241 -563 -330 -36 -13 -68 -28 -72 -34 -14 -22 29
-45 94 -51 10 -1 21 -5 25 -10 8 -8 -57 -2 -167 14 -30 5 -252 8 -493 8 -240
0 -439 2 -440 4 -2 2 1 39 8 83 l11 78 235 233 c234 231 350 328 496 413 39
23 74 42 77 42 3 0 29 11 58 24 57 27 183 68 263 87 89 21 187 28 320 23 72
-3 137 -6 145 -6z m1009 -660 c73 -115 151 -316 187 -478 20 -91 24 -428 6
-503 -7 -26 -15 -63 -18 -83 -11 -70 -52 -191 -93 -274 -23 -47 -46 -101 -50
-120 -7 -30 -9 -32 -16 -15 -17 40 -119 199 -183 283 -88 118 -275 306 -400
405 -58 46 -97 83 -90 86 42 13 248 201 350 319 96 110 155 191 230 314 29 48
55 88 58 88 3 0 12 -10 19 -22z m-7485 -107 c32 -55 94 -146 137 -202 90 -120
309 -339 422 -424 l78 -58 -28 -12 c-43 -19 -260 -214 -331 -298 -132 -156
-256 -332 -280 -398 -9 -22 -11 -20 -41 31 -73 126 -149 322 -165 425 -4 22
-12 58 -18 80 -14 53 -14 365 1 435 6 30 13 65 15 76 16 83 57 205 98 294 30
62 48 114 45 128 -8 40 7 23 67 -77z m1471 -1032 c17 -4 48 -10 70 -13 22 -3
72 -10 110 -15 41 -6 323 -12 680 -13 336 -1 559 -4 498 -5 l-113 -4 -297
-297 c-291 -291 -390 -380 -505 -455 -69 -45 -225 -123 -264 -133 -16 -4 -34
-10 -39 -15 -6 -4 -22 -10 -36 -12 -13 -3 -42 -10 -64 -15 -155 -41 -167 -43
-333 -43 -188 -1 -287 13 -437 62 -99 32 -128 47 -107 56 7 3 30 39 51 81 134
271 336 474 614 617 67 34 162 75 210 90 80 24 110 45 94 62 -4 3 -44 14 -89
23 -118 25 -138 31 -138 41 0 9 42 4 95 -12z m4255 -14 c186 -25 384 -93 535
-184 28 -17 63 -38 79 -47 99 -56 293 -249 377 -378 54 -81 149 -264 149 -286
0 -6 -7 -10 -16 -10 -8 0 -53 -13 -100 -30 -178 -62 -251 -74 -459 -74 -199 0
-181 -2 -415 59 -48 13 -118 42 -213 90 -59 30 -114 55 -122 55 -20 0 -19 -30
1 -58 8 -12 14 -28 12 -34 -3 -7 -29 22 -59 63 -71 96 -142 172 -484 522
l-282 287 -51 0 c-41 0 -50 3 -46 15 5 12 50 15 283 18 295 4 753 -1 811 -8z
m-1264 -927 c286 -289 345 -355 424 -472 98 -146 187 -357 216 -511 2 -11 8
-41 12 -67 12 -64 7 -389 -7 -458 -22 -105 -33 -145 -58 -220 -27 -78 -43
-107 -43 -77 0 11 -23 28 -62 48 -229 115 -459 333 -595 564 -58 100 -139 305
-142 363 -1 8 -11 12 -28 10 -24 -3 -28 -9 -40 -68 -7 -36 -15 -72 -17 -80 -2
-8 -7 -34 -11 -58 -4 -23 -12 -45 -16 -48 -13 -7 -11 20 5 85 41 169 56 430
49 874 -6 333 -5 348 13 362 10 8 24 15 29 15 6 0 128 -118 271 -262z m-1221
-164 l95 -46 2 -121 c2 -144 3 -129 -11 -292 -22 -248 -79 -431 -200 -634
-140 -236 -356 -437 -585 -545 -107 -51 -116 -52 -116 -22 0 14 -13 65 -30
114 -50 149 -68 267 -68 447 1 249 41 421 154 648 30 60 54 113 54 118 0 22
-48 6 -111 -37 -37 -26 -73 -44 -80 -42 -8 3 13 21 46 43 33 21 62 41 65 44 3
4 21 18 40 31 75 52 162 130 333 299 l178 176 70 -67 c52 -51 94 -79 164 -114z
m-2591 -689 c33 -8 114 -24 180 -35 152 -24 474 -27 622 -5 91 14 123 13 97
-3 -43 -28 -52 -520 -13 -742 12 -69 28 -146 35 -172 8 -27 12 -48 9 -48 -3 0
0 -9 6 -20 6 -11 15 -18 20 -15 5 3 11 1 15 -5 11 -18 -25 -11 -134 26 -383
128 -705 433 -854 809 -20 50 -45 123 -56 163 -18 67 -19 73 -3 68 9 -3 44
-12 76 -21z m6261 -8 c-10 -51 -13 -59 -38 -127 -100 -269 -297 -517 -549
-688 -74 -50 -244 -130 -350 -164 -61 -19 -98 -36 -98 -44 0 -8 -5 -14 -11
-14 -7 0 -8 7 -4 18 14 33 39 149 55 262 7 41 14 79 18 84 12 20 10 433 -4
536 -17 138 -17 132 4 121 58 -32 574 -40 707 -11 33 7 101 23 150 34 131 31
129 31 120 -7z m-3087 -1022 c62 -81 251 -274 337 -344 142 -115 287 -211 319
-211 34 0 11 -18 -101 -78 -129 -69 -247 -112 -393 -144 -192 -41 -481 -23
-683 42 -65 21 -286 121 -286 130 0 3 40 30 90 60 232 141 435 330 609 567 40
55 56 70 58 57 2 -11 25 -46 50 -79z"/>
<path d="M12715 13649 c-189 -44 -291 -104 -411 -244 -87 -102 -124 -182 -150
-325 -17 -96 -17 -147 1 -241 42 -222 167 -390 371 -501 162 -89 439 -87 614
2 253 129 410 427 371 703 -21 141 -55 230 -126 326 -46 64 -151 162 -207 195
-133 78 -334 114 -463 85z"/>
<path d="M5034 13561 c-226 -36 -418 -183 -519 -396 -47 -101 -59 -162 -58
-305 1 -107 5 -136 27 -199 41 -116 92 -199 176 -281 96 -94 165 -135 288
-172 321 -95 671 63 811 367 38 81 48 116 62 214 33 236 -73 487 -271 643
-129 101 -347 156 -516 129z"/>
<path d="M3450 9704 c-153 -39 -202 -64 -309 -153 -275 -232 -320 -661 -99
-949 96 -124 221 -210 363 -248 74 -20 244 -26 318 -11 159 31 300 118 401
248 113 144 152 271 143 469 -6 124 -25 198 -79 301 -38 74 -170 215 -240 257
-148 88 -351 124 -498 86z"/>
<path d="M14355 9709 c-167 -38 -280 -102 -385 -217 -71 -77 -119 -158 -152
-257 -20 -61 -23 -89 -23 -215 1 -125 4 -154 25 -215 69 -204 224 -366 416
-433 75 -27 101 -32 200 -39 190 -13 362 49 502 181 144 137 222 317 222 514
0 89 -32 226 -71 305 -74 150 -229 292 -374 342 -117 40 -269 55 -360 34z"/>
<path d="M12830 5863 c-70 -9 -198 -54 -259 -91 -114 -69 -238 -213 -284 -330
-25 -63 -57 -215 -57 -269 1 -135 64 -313 154 -432 195 -259 571 -336 871
-178 95 50 219 182 277 295 26 51 46 92 43 92 -2 0 3 19 11 43 17 47 23 230
11 310 -31 195 -178 397 -355 486 -118 60 -290 91 -412 74z"/>
<path d="M5140 5773 c-66 -12 -176 -46 -219 -67 -180 -92 -322 -271 -365 -463
-69 -305 60 -606 328 -767 102 -61 269 -102 378 -91 306 29 551 229 624 510
25 94 24 284 0 375 -47 173 -184 346 -338 426 -120 62 -301 96 -408 77z"/>
<path d="M8918 4200 c-294 -53 -514 -278 -564 -575 -15 -86 -15 -112 -5 -190
15 -106 41 -191 78 -254 135 -232 351 -361 604 -361 103 0 230 30 319 75 136
69 281 241 329 391 71 221 39 450 -88 629 -57 80 -81 104 -164 166 -102 77
-225 118 -366 124 -53 2 -117 0 -143 -5z"/>
</g>
</svg>
